<svg width="106" height="20" viewBox="0 0 106 20" fill="none" xmlns="http://www.w3.org/2000/svg">
<path d="M20 20H17V0.5H20V20ZM9.5 18.5H3.5V17H2V15.5H0.5V5H2V3.5H3.5V2H9.5V3.5H11V5H12.5V15.5H11V17H9.5V18.5ZM5 5H3.5V15.5H5V17H8V15.5H9.5V5H8V3.5H5V5ZM36.5 11H33.5V9.5H32V8H29V9.5H27.5V11H24.5V9.5H26V8H27.5V6.5H29V2H24.5V0.5H36.5V2H32V6.5H33.5V8H35V9.5H36.5V11ZM44 11H41V6.5H36.5V5H41V0.5H44V11ZM29 18.5H44V20H27.5V18.5H26V12.5H29V18.5ZM80 20H77V0.5H80V20ZM65 15.5H66.5V3.5H60.5V2H69.5V15.5H68V17H66.5V18.5H62V17H65V15.5ZM86 6.5V3.5H101V2H86V0.5H104V5H89V6.5H104V8H96.5V9.5H105.5V11H84.5V9.5H93.5V8H87.5V6.5H86ZM86 12.5H104V18.5H102.5V20H101V14H86V12.5Z" fill="white"/>
</svg>
