<svg width="136" height="20" viewBox="0 0 136 20" fill="none" xmlns="http://www.w3.org/2000/svg">
<path d="M1.69922 13.5V12H15.1992V10.5H0.199219V9H4.69922V7.5H1.69922V6H0.199219V4.5H1.69922V3H0.199219V1.5H4.69922V0H7.69922V1.5H12.1992V3H10.6992V4.5H12.1992V6H10.6992V7.5H7.69922V9H15.1992V0H18.1992V4.5H22.6992V6H18.1992V18H16.6992V19.5H15.1992V13.5H1.69922ZM9.19922 6V4.5H3.19922V6H9.19922ZM33.1992 10.5H27.1992V9H25.6992V7.5H24.1992V3H25.6992V1.5H27.1992V0H33.1992V1.5H34.6992V3H36.1992V7.5H34.6992V9H33.1992V10.5ZM43.6992 10.5H40.6992V0H43.6992V10.5ZM28.6992 3H27.1992V7.5H28.6992V9H31.6992V7.5H33.1992V3H31.6992V1.5H28.6992V3ZM28.6992 18H43.6992V19.5H27.1992V18H25.6992V12H28.6992V18ZM60.1992 0H69.1992V9H67.6992V10.5H61.6992V9H66.1992V1.5H60.1992V0ZM72.1992 3H76.6992V0H79.6992V10.5H76.6992V7.5H72.1992V6H76.6992V4.5H72.1992V3ZM61.6992 15H76.6992V13.5H61.6992V12H79.6992V16.5H64.6992V18H79.6992V19.5H63.1992V18H61.6992V15ZM88.6992 16.5V9H91.6992V10.5H93.1992V3H84.1992V1.5H96.1992V10.5H94.6992V12H91.6992V16.5H99.1992V0H102.199V9H106.699V10.5H102.199V19.5H99.1992V18H84.1992V16.5H88.6992ZM119.923 12.708V4.812L135.067 8.772L119.923 12.708Z" fill="white"/>
</svg>
