<svg width="455" height="20" viewBox="0 0 455 20" fill="none" xmlns="http://www.w3.org/2000/svg">
<path d="M7.5 3.5V17H4.5V8H0V6.5H3V5H4.5V3.5H7.5ZM12 6.5V8H10.5V5H12V3.5H16.5V5H18V6.5H19.5V5H21V3.5H22.5V6.5H21V8H16.5V6.5H15V5H13.5V6.5H12ZM31.5 3.5V17H28.5V8H24V6.5H27V5H28.5V3.5H31.5ZM43.5 3.5V5H45V15.5H43.5V17H37.5V15.5H36V5H37.5V3.5H43.5ZM40.5 14H39V15.5H42V9.5H40.5V6.5H42V5H39V11H40.5V14ZM55.5 3.5V5H57V15.5H55.5V17H49.5V15.5H48V5H49.5V3.5H55.5ZM52.5 14H51V15.5H54V9.5H52.5V6.5H54V5H51V11H52.5V14ZM90 9.5H94.5V11H90V20H87V0.5H90V9.5ZM81 17H79.5V15.5H76.5V17H75V18.5H72V17H73.5V15.5H75V14H76.5V2H79.5V14H81V15.5H82.5V17H84V18.5H81V17ZM115.5 20H112.5V0.5H115.5V20ZM105 18.5H99V17H97.5V15.5H96V5H97.5V3.5H99V2H105V3.5H106.5V5H108V15.5H106.5V17H105V18.5ZM100.5 5H99V15.5H100.5V17H103.5V15.5H105V5H103.5V3.5H100.5V5ZM132 5H139.5V2H132V0.5H142.5V9.5H141V11H133.5V9.5H139.5V6.5H132V5ZM151.5 11H148.5V6.5H144V5H148.5V0.5H151.5V11ZM151.5 18.5H150V20H135V18.5H133.5V12.5H151.5V18.5ZM148.5 14H136.5V18.5H148.5V14ZM160.5 3.5H157.5V2H175.5V3.5H172.5V8H175.5V9.5H157.5V8H160.5V3.5ZM169.5 3.5H163.5V8H169.5V3.5ZM160.5 14H156V12.5H177V14H172.5V20H169.5V14H163.5V20H160.5V14ZM199.5 20H196.5V11H192V9.5H196.5V0.5H199.5V20ZM187.5 15.5H190.5V17H189V18.5H181.5V17H180V2H190.5V3.5H183V8H190.5V9.5H183V17H187.5V15.5ZM223.5 20H220.5V18.5H204V17H220.5V0.5H223.5V20ZM213 12.5H207V11H205.5V9.5H204V5H205.5V3.5H207V2H213V3.5H214.5V5H216V9.5H214.5V11H213V12.5ZM208.5 5H207V9.5H208.5V11H211.5V9.5H213V5H211.5V3.5H208.5V5ZM249 0.5H252V3.5H253.5V5H255V6.5H259.5V8H253.5V6.5H252V5H249V6.5H247.5V8H241.5V6.5H246V5H247.5V3.5H249V0.5ZM252 18.5V17H249V18.5H247.5V20H241.5V18.5H246V17H247.5V15.5H249V11H240V9.5H261V11H252V15.5H253.5V17H255V18.5H259.5V20H253.5V18.5H252ZM282 9.5H286.5V11H282V20H279V0.5H282V9.5ZM276 18.5H273V17H271.5V15.5H268.5V17H267V18.5H264V17H265.5V15.5H267V14H268.5V3.5H264V2H276V3.5H271.5V14H273V15.5H274.5V17H276V18.5ZM289.5 3.5H304.5V2H289.5V0.5H307.5V5H292.5V6.5H307.5V8H291V6.5H289.5V3.5ZM309 11H288V9.5H309V11ZM289.5 15.5H304.5V14H289.5V12.5H307.5V17H292.5V18.5H307.5V20H291V18.5H289.5V15.5ZM333 11H327V9.5H324V5H327V3.5H324V2H328.5V0.5H331.5V2H336V3.5H333V5H336V9.5H333V11ZM342 5H346.5V6.5H342V11H339V0.5H342V5ZM328.5 6.5H327V8H328.5V9.5H331.5V8H333V6.5H331.5V5H328.5V6.5ZM328.5 18.5H342V20H327V18.5H325.5V12.5H328.5V18.5ZM349.5 11V9.5H348V0.5H351V5H357V0.5H360V5H364.5V0.5H367.5V11H364.5V6.5H360V9.5H358.5V11H349.5ZM357 6.5H351V9.5H357V6.5ZM352.5 18.5H367.5V20H351V18.5H349.5V12.5H352.5V18.5ZM396 9.5H394.5V11H385.5V9.5H384V0.5H396V9.5ZM402 5H406.5V6.5H402V11H399V0.5H402V5ZM393 2H387V9.5H393V2ZM402 20H396V18.5H394.5V17H391.5V18.5H390V20H384V18.5H388.5V17H390V15.5H391.5V14H384V12.5H402V14H394.5V15.5H396V17H397.5V18.5H402V20ZM415.5 20H412.5V12.5H408V11H424.5V0.5H427.5V20H424.5V15.5H418.5V14H424.5V12.5H415.5V20ZM418.5 8H420V9.5H417V8H415.5V6.5H412.5V8H411V9.5H408V8H409.5V6.5H411V5H412.5V3.5H408V2H412.5V0.5H415.5V2H420V3.5H415.5V5H417V6.5H418.5V8ZM436.5 17V12.5H433.5V11H432V2H435V6.5H441V2H444V11H442.5V12.5H439.5V17H447V0.5H450V9.5H454.5V11H450V20H447V18.5H432V17H436.5ZM441 11V8H435V11H441Z" fill="white"/>
</svg>
